<?xml version="1.0" encoding="UTF-8"?>
<svg version="1.1" xmlns="http://www.w3.org/2000/svg" width="79" height="66">
<path d="M0 0 C0.81791016 0.2165625 0.81791016 0.2165625 1.65234375 0.4375 C8.19997251 2.049224 14.56189053 3.19281349 21.0625 0.9375 C25.44624122 -0.46156635 29.59629232 0.21028085 33.90234375 1.625 C38.32500258 3.07208673 40.90758529 2.93258868 45.375 1.5 C52.00345239 -0.59900992 56.86655442 0.83170381 63.36328125 2.66796875 C66.8001851 3.10076405 69.46363821 2.40817217 72.8125 1.5625 C73.97394531 1.27503906 75.13539062 0.98757812 76.33203125 0.69140625 C77.21246094 0.46324219 78.09289062 0.23507813 79 0 C79 1.32 79 2.64 79 4 C72.04012347 6.62105989 66.33961147 7.52438084 59 6 C58.34 5.67 57.68 5.34 57 5 C52.78412507 4.63743476 49.00604441 4.64369261 45 6.0625 C39.93811021 7.64434056 34.96376172 6.65458724 30 5 C25.87513605 4.79713784 22.94633887 4.65770722 19.0625 6.0625 C12.69206051 8.01263454 6.18111116 5.97269505 0 4 C0 2.68 0 1.36 0 0 Z " fill="#FFFFFF" transform="translate(0,19)"/>
<path d="M0 0 C6.75 0.875 6.75 0.875 9 2 C14.38546779 2.32148704 14.38546779 2.32148704 19.5 1 C25.35555116 -1.34222046 30.31009627 0.0630115 36 2 C39.51767677 2.24685451 42.10752458 2.37577913 45.375 1 C51.1328139 -1.19345291 56.45887424 -0.33310558 62 2 C66.89158308 2.3557515 70.41788962 1.6291948 75 0 C76.32 0 77.64 0 79 0 C79 0.99 79 1.98 79 3 C70.69306309 6.36296962 65.36066526 7.4162678 56.7890625 4.6796875 C52.48823076 3.63158565 49.12208375 4.66198491 45 6 C40.58919305 7.2465324 37.97050286 6.78002239 33.6875 5.4375 C28.0980885 3.76143495 24.47332006 4.31186872 19 6 C12.37612795 7.59463586 7.33147185 6.02652896 1 4 C0.67 2.68 0.34 1.36 0 0 Z " fill="#FFFFFF" transform="translate(0,39)"/>
<path d="M0 0 C1.155 0.144375 2.31 0.28875 3.5 0.4375 C4.59248047 0.56898437 4.59248047 0.56898437 5.70703125 0.703125 C7.18735377 0.89478516 8.66471526 1.11179854 10.13671875 1.359375 C14.59434396 2.07259503 16.91276757 1.65435598 21 0 C25.59467519 -0.41065394 29.73830117 -0.4289776 34.125 1.0625 C38.45435895 2.47424748 42.86465668 2.06767166 47 0 C48.76770327 -0.12240135 50.54060462 -0.17551153 52.3125 -0.1875 C53.25738281 -0.20167969 54.20226563 -0.21585937 55.17578125 -0.23046875 C58.15597845 0.01272853 60.25038182 0.88212245 63 2 C65.73874389 1.7755128 68.30415453 1.4534146 71 1 C72.49916036 0.80590087 73.9991575 0.61813237 75.5 0.4375 C76.655 0.293125 77.81 0.14875 79 0 C79 0.99 79 1.98 79 3 C70.87842721 6.22558919 64.20210213 7.45351669 56 4 C52.49575804 3.749697 49.88352659 3.6279888 46.625 5 C40.8671861 7.19345291 35.54112576 6.33310558 30 4 C26.49575804 3.749697 23.88352659 3.6279888 20.625 5 C13.54990917 7.6952727 6.77042947 5.6889649 0 3 C0 2.01 0 1.02 0 0 Z " fill="#FFFFFF" transform="translate(0,0)"/>
<path d="M0 0 C0.969375 0.144375 1.93875 0.28875 2.9375 0.4375 C3.57429687 0.52515625 4.21109375 0.6128125 4.8671875 0.703125 C6.33285618 0.90713749 7.79640976 1.12676418 9.2578125 1.359375 C14.22989574 2.06726482 17.2138003 1.69511239 22 0 C27.25875544 -0.49681647 31.13080182 -0.05018871 36 2 C39.50424196 2.250303 42.11647341 2.3720112 45.375 1 C51.1328139 -1.19345291 56.45887424 -0.33310558 62 2 C66.68114008 2.33436715 69.72899254 1.79831893 74 0 C76.8125 -0.125 76.8125 -0.125 79 0 C79 0.99 79 1.98 79 3 C71.95921785 6.12923651 65.35211572 7.47971934 57.875 4.9375 C53.08587092 3.37582747 48.74791819 4.4173606 44 6 C38.50384675 6.4005671 34.0733817 6.25483631 29 4 C25.82305484 3.73525457 23.67725122 3.69899946 20.75 5 C13.529651 7.62558145 6.79412 6.01960889 0 3 C0 2.01 0 1.02 0 0 Z " fill="#FFFFFF" transform="translate(0,59)"/>
</svg>
