<?xml version="1.0" encoding="UTF-8"?>
<svg version="1.1" xmlns="http://www.w3.org/2000/svg" width="47" height="55">
<path d="M0 0 C5.62190491 3.35174881 9.56334243 8.22193737 11.5625 14.4375 C12.65154366 24.32753606 11.01073818 30.26514274 5.5625 38.4375 C8.2025 42.0675 10.8425 45.6975 13.5625 49.4375 C12.2425 50.7575 10.9225 52.0775 9.5625 53.4375 C5.96615256 49.94390535 2.72798033 46.32651869 -0.4375 42.4375 C-0.96859375 42.59605469 -1.4996875 42.75460938 -2.046875 42.91796875 C-9.22074355 44.47699574 -17.29420462 44.60604503 -23.72265625 40.7734375 C-28.36901182 37.15372542 -31.62618855 33.06903196 -33.4375 27.4375 C-34.27474732 19.83412613 -34.28334412 12.6577502 -29.4375 6.4375 C-21.75495775 -1.70016916 -10.63397239 -4.78323468 0 0 Z M-23.3125 8.5625 C-26.45872109 12.81915206 -28.5223726 17.15778007 -28.3828125 22.55078125 C-27.36460407 27.90157044 -24.65077502 32.02375905 -20.4375 35.4375 C-16.18116893 37.79775752 -12.14591514 38.89924003 -7.3125 38 C-2.04098564 36.25335053 2.02586798 33.20855974 4.734375 28.32421875 C6.5219111 23.78481787 7.02332176 20.0237 5.4765625 15.35546875 C3.34290813 10.87844184 0.76307571 7.46492111 -3.796875 5.3359375 C-11.26470135 2.79116865 -16.79134285 3.74251428 -23.3125 8.5625 Z " fill="#616161" transform="translate(33.4375,1.5625)"/>
</svg>
