<?xml version="1.0" encoding="UTF-8"?>
<svg version="1.1" xmlns="http://www.w3.org/2000/svg" width="79" height="78">
<path d="M0 0 C1.21523849 -0.01268417 2.43047699 -0.02536835 3.68254089 -0.03843689 C5.65593193 -0.03403343 5.65593193 -0.03403343 7.66918945 -0.02954102 C9.03579467 -0.03410405 10.40239759 -0.03940999 11.76899719 -0.04542542 C14.63645733 -0.05436468 17.50363917 -0.05192758 20.37109375 -0.04199219 C24.02841837 -0.03054944 27.6847707 -0.05063574 31.34196758 -0.07990932 C34.16720091 -0.09835502 36.99220539 -0.09796158 39.8174839 -0.0922718 C41.81591032 -0.09204563 43.81431541 -0.10888696 45.81266785 -0.12608337 C53.74783978 -0.06561262 60.0202485 0.38123782 65.93481445 6.22045898 C66.4781543 7.08477539 66.4781543 7.08477539 67.0324707 7.96655273 C67.41274414 8.5453418 67.79301758 9.12413086 68.18481445 9.72045898 C70.97535649 14.88236293 71.04715065 21.08863098 69.4465332 26.66186523 C67.20745739 31.69500145 63.99894917 34.89829181 59.0949707 37.40405273 C53.49038024 39.12514744 48.24826449 39.21219319 42.9074707 36.77905273 C37.96006463 34.01861398 35.13984529 30.63628481 32.7199707 25.46655273 C31.96957127 21.78959552 32.25385424 19.04889076 33.0949707 15.40405273 C35.0949707 13.40405273 35.0949707 13.40405273 38.0324707 13.09155273 C41.0949707 13.40405273 41.0949707 13.40405273 42.8449707 14.46655273 C44.0949707 16.40405273 44.0949707 16.40405273 45.0949707 19.96655273 C45.76637007 23.6500871 45.76637007 23.6500871 49.0949707 25.40405273 C53.60347252 25.05959676 53.60347252 25.05959676 57.0949707 22.40405273 C57.56587363 18.33876657 57.56587363 18.33876657 55.93798828 14.73669434 C53.34294664 12.86028226 51.47991849 13.02551926 48.29418945 13.01928711 C47.102854 13.00917603 45.91151855 12.99906494 44.68408203 12.98864746 C43.39655029 12.9916687 42.10901855 12.99468994 40.7824707 12.99780273 C39.44871751 12.98857087 38.1149753 12.97760073 36.78125 12.96496582 C32.55250467 12.92818961 28.32385243 12.91447224 24.0949707 12.90405273 C19.1943405 12.89197811 14.29414293 12.87047468 9.39370728 12.8240509 C7.43113772 12.81046655 5.46847054 12.81485267 3.50585938 12.81945801 C2.31452393 12.80934692 1.12318848 12.79923584 -0.10424805 12.78881836 C-1.15443115 12.78676392 -2.20461426 12.78470947 -3.28662109 12.78259277 C-5.9050293 12.40405273 -5.9050293 12.40405273 -7.74414062 11.06750488 C-9.55432679 8.47366609 -9.28856131 6.47230885 -8.9050293 3.40405273 C-6.47268546 -0.09841565 -4.08199693 0.02059995 0 0 Z M-4.9050293 4.40405273 C-4.5750293 5.72405273 -4.2450293 7.04405273 -3.9050293 8.40405273 C-2.81294914 8.40952118 -2.81294914 8.40952118 -1.69880676 8.4151001 C5.17232201 8.4530131 12.04306178 8.5099033 18.91384411 8.58795547 C22.44599923 8.62741557 25.97790563 8.65961078 29.51025391 8.67504883 C33.57405418 8.69313114 37.63692541 8.74308793 41.70043945 8.79467773 C43.59755928 8.79652069 43.59755928 8.79652069 45.53300476 8.79840088 C46.71385147 8.81811951 47.89469818 8.83783813 49.11132812 8.8581543 C50.14835373 8.86703674 51.18537933 8.87591919 52.25382996 8.8850708 C55.8130609 9.53522393 57.50422393 10.9288922 60.0949707 13.40405273 C61.7044649 16.62304112 61.54967617 19.91351962 61.0949707 23.40405273 C59.6574707 26.34155273 59.6574707 26.34155273 57.0949707 28.40405273 C52.92334306 29.6570976 49.38838136 29.79769946 45.2199707 28.52905273 C42.05643898 25.36552101 41.19412811 21.66663877 40.0949707 17.40405273 C38.7749707 17.73405273 37.4549707 18.06405273 36.0949707 18.40405273 C36.32272922 23.98413642 37.64754506 26.88863863 41.48950195 30.95874023 C44.63823681 33.79336772 47.27886545 34.29626525 51.4074707 34.84155273 C56.26176521 34.26561949 59.39773386 32.56002743 63.0949707 29.40405273 C66.26845879 24.94133511 66.87193905 20.72575372 66.0949707 15.40405273 C64.37768483 10.70411244 62.22890404 8.19445774 58.0949707 5.40405273 C54.89149611 4.33622787 52.61309248 4.28346967 49.24658203 4.29052734 C48.04556351 4.29060287 46.84454498 4.29067841 45.60713196 4.29075623 C44.31018906 4.29591751 43.01324615 4.3010788 41.67700195 4.30639648 C40.33607537 4.30826196 38.99514809 4.30968525 37.65422058 4.3106842 C34.12787997 4.31449917 30.60158066 4.32432075 27.07525635 4.33538818 C23.47571369 4.34562423 19.87616435 4.35018653 16.27661133 4.35522461 C9.21604758 4.36594393 2.15551184 4.38300812 -4.9050293 4.40405273 Z " fill="#FFFFFF" transform="translate(8.905029296875,39.595947265625)"/>
<path d="M0 0 C4.41030614 3.39961098 7.54892906 6.87098397 9 12.3125 C9.77642313 19.21796031 9.17399864 23.71055446 5 29.3125 C-0.87337305 35.31935881 -6.88961874 36.37058616 -14.96948242 36.5871582 C-17.26474223 36.60696811 -19.56012416 36.61507241 -21.85546875 36.61328125 C-23.07526932 36.61756638 -24.29506989 36.6218515 -25.55183411 36.62626648 C-28.11942933 36.63198903 -30.68704076 36.63252542 -33.25463867 36.62817383 C-37.18501203 36.62500201 -41.11464077 36.64854116 -45.04492188 36.67382812 C-47.54426989 36.6761001 -50.04361992 36.67680509 -52.54296875 36.67578125 C-53.71699753 36.684991 -54.89102631 36.69420074 -56.10063171 36.70368958 C-57.19559464 36.69746078 -58.29055756 36.69123199 -59.41870117 36.68481445 C-60.8581031 36.68575859 -60.8581031 36.68575859 -62.32658386 36.6867218 C-65.5546494 36.2348608 -67.43567071 35.31284963 -70 33.3125 C-70.4375 29.75 -70.4375 29.75 -70 26.3125 C-67.35301485 23.66551485 -66.1159674 24.05150993 -62.42041016 24.02539062 C-61.25224762 24.01197632 -60.08408508 23.99856201 -58.88052368 23.98474121 C-57.61284149 23.97946411 -56.3451593 23.97418701 -55.0390625 23.96875 C-53.05715376 23.94640962 -51.07524506 23.92405852 -49.09334373 23.90106964 C-45.60396181 23.86327941 -42.11448772 23.83831086 -38.625 23.8125 C-34.47104899 23.78171757 -30.31721253 23.74869136 -26.16342163 23.70056152 C-23.57482348 23.67142542 -20.98610893 23.6510697 -18.39736938 23.64025879 C-17.22290253 23.62684448 -16.04843567 23.61343018 -14.83837891 23.59960938 C-13.8051651 23.59231812 -12.77195129 23.58502686 -11.70742798 23.57751465 C-8.92483811 23.30514283 -7.27939196 22.92329934 -5 21.3125 C-3.69412087 16.7386737 -3.69412087 16.7386737 -5.0625 12.375 C-7.89875113 10.81963648 -9.82282567 10.84916208 -13 11.3125 C-15.40528313 13.54597719 -15.98445316 15.25270445 -16.8125 18.4375 C-18 21.3125 -18 21.3125 -20.8125 22.9375 C-24 23.3125 -24 23.3125 -26.9375 22 C-29.17235719 19.08791336 -29.33624243 18.54498234 -29.125 15.0625 C-27.95639937 8.49453166 -25.06930778 4.00173084 -19.9375 -0.1875 C-13.96637339 -3.11426666 -5.88350047 -3.10658969 0 0 Z M-22 7.3125 C-23.9592842 10.34972949 -25.16029696 13.06218368 -24.6875 16.75 C-24.3471875 17.5234375 -24.3471875 17.5234375 -24 18.3125 C-23.01 18.3125 -22.02 18.3125 -21 18.3125 C-20.82984375 17.76980469 -20.6596875 17.22710937 -20.484375 16.66796875 C-19.42410478 13.5379157 -18.47103815 10.89223926 -16.375 8.3125 C-12.61858323 6.73085084 -9.00376023 6.62803364 -5 7.3125 C-2.49839182 9.18870613 -1.38054348 10.55141303 0 13.3125 C0.37677003 18.30470285 0.07396361 21.29270143 -3 25.3125 C-5.63901412 26.63200706 -7.65598067 26.46627189 -10.61132812 26.50195312 C-11.78594604 26.51867065 -12.96056396 26.53538818 -14.17077637 26.5526123 C-15.44473267 26.56618774 -16.71868896 26.57976318 -18.03125 26.59375 C-20.02015587 26.62187196 -22.00906168 26.64999918 -23.99796295 26.67844391 C-28.20827054 26.73707623 -32.41869016 26.78702285 -36.62908936 26.83856201 C-40.09387761 26.88130765 -43.55861727 26.92591269 -47.02331543 26.97546387 C-49.62522532 27.01225335 -52.22720139 27.04466022 -54.82922363 27.0723877 C-56.00384155 27.08910522 -57.17845947 27.10582275 -58.38867188 27.12304688 C-59.94515442 27.14183899 -59.94515442 27.14183899 -61.53308105 27.16101074 C-64.003538 27.15112284 -64.003538 27.15112284 -66 28.3125 C-65.67 29.6325 -65.34 30.9525 -65 32.3125 C-57.1529416 32.36330046 -49.30592578 32.3982759 -41.45874023 32.42236328 C-38.79036743 32.43127541 -36.12220998 32.44604451 -33.45385742 32.46337891 C-29.61374195 32.48769702 -25.7737723 32.49899932 -21.93359375 32.5078125 C-20.74479111 32.51813507 -19.55598846 32.52845764 -18.3311615 32.53909302 C-8.56514553 32.77352364 -8.56514553 32.77352364 -0.0390625 28.65625 C0.42757812 28.0478125 0.89421875 27.439375 1.375 26.8125 C1.85710937 26.2040625 2.33921875 25.595625 2.8359375 24.96875 C5.65537807 20.95719698 5.57108435 17.08226084 5 12.3125 C2.63619663 7.49397775 -0.16236475 4.64173179 -5 2.3125 C-11.8242439 1.10556761 -17.25976147 2.06015814 -22 7.3125 Z " fill="#FFFFFF" transform="translate(70,1.6875)"/>
<path d="M0 0 C10.89 0 21.78 0 33 0 C33 1.32 33 2.64 33 4 C21.78 4 10.56 4 -1 4 C-0.67 2.68 -0.34 1.36 0 0 Z " fill="#FFFFFF" transform="translate(3,54)"/>
<path d="M0 0 C7.92 0 15.84 0 24 0 C24.33 1.32 24.66 2.64 25 4 C16.42 4 7.84 4 -1 4 C-0.67 2.68 -0.34 1.36 0 0 Z " fill="#FFFFFF" transform="translate(3,19)"/>
<path d="M0 0 C0.99 0.33 1.98 0.66 3 1 C3 1.99 3 2.98 3 4 C1.35 4 -0.3 4 -2 4 C-2 3.01 -2 2.02 -2 1 C-1.34 0.67 -0.68 0.34 0 0 Z " fill="#FFFFFF" transform="translate(33,19)"/>
</svg>
